<?xml version="1.0" standalone="no"?>
<!DOCTYPE svg PUBLIC "-//W3C//DTD SVG 20010904//EN"
 "http://www.w3.org/TR/2001/REC-SVG-20010904/DTD/svg10.dtd">
<svg version="1.0" xmlns="http://www.w3.org/2000/svg"
 width="700.000000pt" height="700.000000pt" viewBox="0 0 700.000000 700.000000"
 preserveAspectRatio="xMidYMid meet">
<metadata>
Created by potrace 1.14, written by Peter Selinger 2001-2017
</metadata>
<g transform="translate(0.000000,700.000000) scale(0.100000,-0.100000)"
fill="#000000" stroke="none">
<path d="M1569 6996 c-2 -2 -31 -7 -64 -11 -33 -3 -78 -10 -100 -15 -22 -5
-52 -11 -66 -13 -14 -3 -70 -18 -125 -35 -580 -175 -1031 -658 -1168 -1252
-16 -66 -19 -84 -35 -200 -12 -78 -9 -3913 3 -3980 41 -245 133 -506 228 -647
15 -23 28 -44 28 -48 0 -3 33 -49 72 -103 162 -216 371 -390 613 -510 150 -75
339 -137 480 -157 28 -4 59 -10 70 -14 34 -10 3884 -10 3960 0 169 22 252 41
391 90 427 150 784 473 978 884 36 75 108 280 121 342 42 203 40 94 40 2148 0
1067 -3 1971 -8 2008 -32 290 -154 593 -339 839 -131 174 -362 372 -548 470
-146 77 -358 154 -475 172 -39 7 -58 10 -110 23 -30 7 -3938 16 -3946 9z"/>
</g>
</svg>
